# xmcd
#
# Track frame offsets: 
#        150
#        15104
#        45459
#        69528
#        85324
#        112874
#        130414
#        149487
#        193106
#        212148
#        245575
#        272672
#        299846
#        318058
#
# Disc length: 4405 seconds
#
# Revision: 0
# Processed by: cddbd v1.5.1PL0 Copyright (c) Steve Scherf et al.
# Submitted via: ExactAudioCopy v0.95a3
#
DISCID=cf11330e
DTITLE=Tolo Marton - Dal Vero [CD1)
DYEAR=2002
DGENRE=Blues
TTITLE0=Pinto Creek
TTITLE1=Crossroader
TTITLE2=Let Me Be
TTITLE3=Two-Five-Two-Four-O
TTITLE4=My Place Is Close To You
TTITLE5=Univibe
TTITLE6=Feel Down
TTITLE7=Red House
TTITLE8=Stone Free
TTITLE9=Fought To Change
TTITLE10=Certitude Of Laundromats
TTITLE11=Eclipse
TTITLE12=See What You've Done To Me
TTITLE13=Tequila
EXTD=
EXTT0=
EXTT1=
EXTT2=
EXTT3=
EXTT4=
EXTT5=
EXTT6=
EXTT7=
EXTT8=
EXTT9=
EXTT10=
EXTT11=
EXTT12=
EXTT13=
PLAYORDER=
